<svg xmlns="http://www.w3.org/2000/svg" xmlns:xlink="http://www.w3.org/1999/xlink" viewBox="0 0 154.38 91.37"><defs><style>.cls-1{fill:#140e38;}.cls-2,.cls-3,.cls-4{stroke:#fff;stroke-miterlimit:10;stroke-width:0.25px;}.cls-2{fill:url(#linear-gradient);}.cls-3{fill:url(#linear-gradient-2);}.cls-4,.cls-5{fill:#a04cfe;}.cls-6{fill:#fdb00a;}.cls-7{fill:#fff;}.cls-8{fill:url(#linear-gradient-3);}</style><linearGradient id="linear-gradient" x1="86.21" y1="24.1" x2="130.33" y2="24.1" gradientUnits="userSpaceOnUse"><stop offset="0" stop-color="#020202"/><stop offset="0.05" stop-color="#221803"/><stop offset="0.15" stop-color="#543b05"/><stop offset="0.25" stop-color="#825a06"/><stop offset="0.36" stop-color="#a87507"/><stop offset="0.47" stop-color="#c78a08"/><stop offset="0.58" stop-color="#df9b09"/><stop offset="0.7" stop-color="#f0a70a"/><stop offset="0.83" stop-color="#faae0a"/><stop offset="0.99" stop-color="#fdb00a"/></linearGradient><linearGradient id="linear-gradient-2" x1="24.94" y1="38.86" x2="48.74" y2="38.86" gradientUnits="userSpaceOnUse"><stop offset="0" stop-opacity="0.2"/><stop offset="0" stop-color="#030105" stop-opacity="0.22"/><stop offset="0.05" stop-color="#200f34" stop-opacity="0.36"/><stop offset="0.09" stop-color="#3b1c5e" stop-opacity="0.5"/><stop offset="0.14" stop-color="#542885" stop-opacity="0.62"/><stop offset="0.2" stop-color="#6832a6" stop-opacity="0.72"/><stop offset="0.26" stop-color="#7a3ac1" stop-opacity="0.81"/><stop offset="0.33" stop-color="#8841d8" stop-opacity="0.88"/><stop offset="0.41" stop-color="#9346e9" stop-opacity="0.93"/><stop offset="0.51" stop-color="#9a49f5" stop-opacity="0.97"/><stop offset="0.64" stop-color="#9f4bfc" stop-opacity="0.99"/><stop offset="0.99" stop-color="#a04cfe"/></linearGradient><linearGradient id="linear-gradient-3" x1="57.86" y1="62.99" x2="92.37" y2="62.99" gradientUnits="userSpaceOnUse"><stop offset="0.32" stop-color="#fdb00a" stop-opacity="0.02"/><stop offset="0.92" stop-opacity="0.4"/></linearGradient></defs><title>Asset 8</title><g id="Layer_2" data-name="Layer 2"><g id="Layer_1-2" data-name="Layer 1"><path class="cls-1" d="M126.39,81.35c33.1-15.87,37.23-44.64,10.29-64.19C110.25-2,63-5.66,30.13,9-3.38,23.89-10.18,52.45,16,72.87,42.71,93.7,92.63,97.53,126.39,81.35Z"/><g id="csd"><path class="cls-2" d="M86.21,22.06c5.13-2.29,13.27-2.49,16.46-.71,7.32,4.11,10,5.58,15.69,8.73,5.07,2.82,10.71-1,11.88-1.85.13-.09.11-.23-.05-.32-2-1.16-14.65-8.4-17.59-10.1-1.22-.71-14.95-2.39-26.39,4.25"/><path class="cls-3" d="M34.78,25.58c-4.23,3-5,7.83-2.06,9.75,6.79,4.42,9.21,6.05,14.42,9.47,4.66,3.07-2.17,6.54-3.74,7.27a.63.63,0,0,1-.57,0l-17-10.67c-1.18-.75-3.27-9.11,8.91-15.8"/><path class="cls-4" d="M25.63,41.18C4.35,24.1,40,10.21,60.61,19.54a60.33,60.33,0,0,1,6.22,3.55,10.36,10.36,0,0,0,.06,9.52c-1.11-.8-12.11-7.6-14.48-8.46C36.26,18.71,21.59,33.51,25.63,41.18Z"/><path class="cls-5" d="M25.86,41.32C4.58,24.24,39.73,10.45,60.39,19.79a43.79,43.79,0,0,1,5.55,3.38s-2.31,3.79.32,8.89c-1.1-.8-11.59-7.18-14-8C36.82,18.5,22.77,32.44,25.86,41.32Z"/><path class="cls-6" d="M87,73.13a40.85,40.85,0,0,1-14.37-2.51c-11.77-7.09-20.66-12.92-22.32-14,0-.09,0-.12,0-.15l17-9.87a.49.49,0,0,1,.23,0,.45.45,0,0,1,.24.06l1.48.91c1.5.93,2.25,2,2.23,3.16,0,2.66-4,5.14-5.21,5.84a.34.34,0,0,0-.19.29.36.36,0,0,0,.18.29l2.14,1.33c3.69,2.29,7,4.33,10,6.18,1.27.77,4.26,1.55,8.06,1.55h0a21.58,21.58,0,0,0,11.19-2.85,8.69,8.69,0,0,0,3.85-6.94,4.73,4.73,0,0,0-2.07-4l-1.86-1.12C93.21,48.6,87.27,45,84.24,43a2.55,2.55,0,0,1-.83-3c.82-2.21,3.69-4.11,4.37-4.11l19.71,11.81A12.36,12.36,0,0,1,113,56.91a10.3,10.3,0,0,1-3.67,8.91C103.75,70.54,95.82,73.13,87,73.13Z"/><path class="cls-7" d="M87.78,35.94l5.85,3.51,13.8,8.29a12.19,12.19,0,0,1,5.4,9.18,10.18,10.18,0,0,1-3.62,8.81C103.69,70.42,95.79,73,87,73a40.69,40.69,0,0,1-14.36-2.52c-11.57-7-20.37-12.75-22.2-14l17-9.84a.39.39,0,0,1,.17,0,.43.43,0,0,1,.17,0l1.48.91c1.46.91,2.19,1.94,2.18,3.06,0,2.59-3.95,5-5.15,5.73a.45.45,0,0,0-.25.39.43.43,0,0,0,.24.4l2,1.25c3.8,2.36,7.07,4.4,10.12,6.26,1.29.78,4.3,1.57,8.13,1.57a21.59,21.59,0,0,0,11.29-2.89,8.78,8.78,0,0,0,3.87-7,4.84,4.84,0,0,0-2.13-4.14l-1.88-1.13c-4.33-2.59-10.26-6.14-13.3-8.2A2.41,2.41,0,0,1,83.53,40c.78-2.13,3.61-4,4.25-4h0m0-.24c-1.14,0-7,4.45-3.65,7.36l0,0c3.48,2.36,10.65,6.62,15.17,9.33,3.34,2.19,2.37,7.89-1.75,10.76h0A21.42,21.42,0,0,1,86.44,66c-3.58,0-6.65-.72-8-1.53-3.58-2.19-7.55-4.67-12.12-7.51a.2.2,0,0,1,0-.37c1.64-.94,8.91-5.52,3-9.21l-1.48-.91a.58.58,0,0,0-.3-.08.7.7,0,0,0-.3.07l-17,9.87c-.16.1-.17.26,0,.36,1.66,1.1,10.53,6.93,22.27,14l.08,0A40.68,40.68,0,0,0,87,73.26c7.94,0,16.3-2.13,22.42-7.34,6.56-5.58,3.6-15.15-1.82-18.4L87.9,35.72l-.12,0Z"/><path class="cls-6" d="M78.89,39.61a.45.45,0,0,1-.24-.06l-4-2.42a10.42,10.42,0,0,1-5-8.76c0-2.91,1.53-7.21,8.39-11.11,4-2.28,9.63-3.54,15.75-3.54a43.1,43.1,0,0,1,18.81,4.17c.06,0,.08.06.08.08s-.09.1-.27.1c-.71,0-1.68,0-2.85,0-6.17,0-17.5.56-24.07,4.32C82.64,24,81.14,25.78,81,27.77c-.22,2.86,2.43,5.21,3.25,5.86,0,.07,0,.1,0,.13-3.19,1.46-4.93,3.44-5,5.73C79.18,39.54,79.06,39.61,78.89,39.61Z"/><path class="cls-7" d="M93.75,13.84a43.1,43.1,0,0,1,18.63,4.1h0c-.9,0-1.86,0-2.84,0-6.18,0-17.53.57-24.13,4.34-2.85,1.63-4.37,3.49-4.53,5.53-.21,2.83,2.32,5.16,3.23,5.9-4,1.87-5,4.19-5,5.77a.35.35,0,0,1-.18,0,.29.29,0,0,1-.17,0l-4-2.41a10.3,10.3,0,0,1-5-8.66c0-2.88,1.52-7.13,8.32-11,4-2.27,9.59-3.53,15.69-3.53m0-.25c-6,0-11.62,1.19-15.82,3.57-12.59,7.16-8.81,16.76-3.33,20.08l4,2.42a.58.58,0,0,0,.3.07c.21,0,.41-.09.42-.24.08-2,1.48-4,4.94-5.62.17-.08.2-.23.07-.34-1.34-1.06-7.16-6.3,1.19-11.07,6.58-3.77,18-4.31,24-4.31,1.17,0,2.14,0,2.83,0h0c.38,0,.54-.27.24-.41a43.39,43.39,0,0,0-18.86-4.19Z"/><path class="cls-8" d="M66,56.8l-8.11,4.75a0,0,0,0,0,0,0L69.49,68.9h0c10.88,1,17.7-.68,22.86-3.45-3,.85-9.47,1.29-13.6-.67l-1.07-.58L66,56.8Z"/></g></g></g></svg>