<svg xmlns="http://www.w3.org/2000/svg" width="25px" height="25px" viewBox="0 0 160.57 127.44">
    <defs>
        <style>.cls-1,.cls-2{fill:#fff;}.cls-1{stroke:#fff;stroke-miterlimit:10;stroke-width:0.25px;}</style>
    </defs>
    <title>Asset 9</title>
    <g id="Layer_2" data-name="Layer 2">
        <g id="Layer_1-2" data-name="Layer 1">
            <g id="csd">
                <path class="cls-1"
                      d="M63,34.59c1.14-9.17,9.09-17.83,15.49-18,14.63-.31,19.91-.52,31.05-.81,9.91-.25,9.13-12.48,8.84-15.17a.6.6,0,0,0-.6-.52c-4,0-29.41.17-35.41.17C79.92.3,62.87,11.4,63,34.59"/>
                <path class="cls-1"
                      d="M17.18,92.71c1.15,9.17,9.09,17.83,15.5,18,14.63.31,19.91.52,31.05.81,9.91.25,9.13,12.48,8.83,15.18a.6.6,0,0,1-.6.52H36.58c-2.49,0-19.56-11.28-19.4-34.47"/>
                <path class="cls-1"
                      d="M36,127.1c-52.38-6-41.92-65.48-3.53-70.74a94.33,94.33,0,0,1,12.74-.31,41.41,41.41,0,0,0,17,15.88c-2.52-.22-25.75-.43-29.71.53C6.09,79.8,18.24,118.91,36,127.1Z"/>
                <path class="cls-2"
                      d="M36.47,127.1c-52.38-6-42.2-64.83-3.8-70.09a72.47,72.47,0,0,1,11.76.07s4.44,8.73,16.13,14.57c-2.52-.22-24.5-.25-28.45.71C6.26,78.87,17.51,116,36.47,127.1Z"/>
                <path class="cls-2"
                      d="M108.83,127.31c-11.42,0-19.52-.17-21.72-.22a.47.47,0,0,1-.47-.46V94.23a.46.46,0,0,1,.48-.45h3A10.71,10.71,0,0,1,98,96.9c4.33,4.39,4.6,12.09,4.58,14.34a.71.71,0,0,0,.21.5.73.73,0,0,0,.53.22h4.1c7.58,0,14.12,0,20.13-.06,2.48,0,6.84-1.81,10.56-5.63a20.89,20.89,0,0,0,6.06-15.14c-.65-8.7-9.16-18.87-16-19.13l-3.72,0c-3.49,0-7.43,0-11.31,0-7.16,0-12.28-.09-15.63-.27-7.15-1.18-9.52-11.1-9.23-14.67.07-.78.25-1,.34-1h39.54c10.65,0,29,12.48,31.63,27.87,3.86,23.09-11.08,39.13-27.83,43.05h-.11C124.39,127.23,116.63,127.31,108.83,127.31Z"/>
                <path class="cls-2"
                      d="M128.21,56.26c10.61,0,28.94,12.44,31.5,27.77,1.8,10.72-.39,20.66-6.31,28.74A37.59,37.59,0,0,1,132,126.94h-.08c-7.51.16-15.27.24-23.07.24-11.41,0-19.51-.18-21.72-.23a.34.34,0,0,1-.35-.33V94.23a.35.35,0,0,1,.36-.33h3A10.65,10.65,0,0,1,98,97c4.3,4.36,4.57,12,4.55,14.26a.82.82,0,0,0,.24.59.87.87,0,0,0,.62.25h4c7.6,0,14.17,0,20.19-.06,2.59,0,6.89-1.8,10.65-5.67a21.06,21.06,0,0,0,6.1-15.23v-.06c-.66-8.88-9.09-18.92-16.12-19.2l-3.72,0c-3.48,0-7.42,0-11.3,0-7.16,0-12.27-.08-15.62-.26h0c-5.15-.85-7.93-6.43-8.82-11.37-.47-2.61-.2-3.92,0-4h39.54m0-.25H88.67c-1.46,0,.07,14.45,8.8,15.9h.08c3.93.21,9.72.26,15.64.26,5.34,0,10.77,0,15-.07,6.89.27,15.23,10.38,15.87,19v0c.19,13.13-11.21,20.57-16.5,20.64-7.08.06-15,0-24.23.06h0a.59.59,0,0,1-.61-.58c0-3.12-.5-17.54-12.62-17.6h-3a.6.6,0,0,0-.61.58v32.4a.6.6,0,0,0,.59.58c2.19.05,10.29.23,21.73.23,6.72,0,14.59-.06,23.07-.24l.14,0C148.41,123.35,163.87,107.36,160,84c-2.56-15.31-21-28-31.75-28Z"/>
                <path class="cls-2"
                      d="M78,71.72c-11.47,0-32-12.41-32-37.13C45.94,17,61.94,1.94,82.37.35h0a.49.49,0,0,1,.49.31.43.43,0,0,1-.13.48C78.09,5.32,62.91,20.2,62.91,36c0,16.73,15.29,19.66,18.36,20.08a.45.45,0,0,1,.41.5A17,17,0,0,0,86.48,71a.43.43,0,0,1,.1.48.48.48,0,0,1-.44.29Z"/>
                <path class="cls-2"
                      d="M82.42.48a.34.34,0,0,1,.33.22.31.31,0,0,1-.09.35C78,5.24,62.79,20.15,62.79,36c0,16.83,15.38,19.78,18.46,20.2a.34.34,0,0,1,.3.36A17.05,17.05,0,0,0,86.39,71a.32.32,0,0,1,.07.36.33.33,0,0,1-.32.21H78c-11.43,0-31.86-12.37-31.92-37C46.06,17.05,62,2.06,82.38.48h0m0-.25h0C61.76,1.83,45.81,17,45.81,34.59c.06,25,20.89,37.26,32.17,37.26h8.16a.58.58,0,0,0,.43-1A16.71,16.71,0,0,1,81.8,56.58a.59.59,0,0,0-.51-.64C78.1,55.51,63,52.58,63,36,63,20.21,78.27,5.33,82.83,1.23a.58.58,0,0,0-.42-1Z"/>
                <path class="cls-2"
                      d="M102.74,111.9v15.34a.06.06,0,0,0,.06.06h23.35c12.07-9,16-18.18,16.57-27.52-1.5,4.2-7.11,11.21-14.3,12.17l-2,.12-23.63-.23S102.74,111.86,102.74,111.9Z"/>
            </g>
        </g>
    </g>
</svg>
