<?xml version="1.0" encoding="utf-8"?>
<!-- Generator: Adobe Illustrator 23.0.3, SVG Export Plug-In . SVG Version: 6.00 Build 0)  -->
<svg version="1.1" id="Layer_1" xmlns="http://www.w3.org/2000/svg" xmlns:xlink="http://www.w3.org/1999/xlink" x="0px" y="0px"
	 viewBox="0 0 728 608" style="enable-background:new 0 0 728 608;" xml:space="preserve">
<style type="text/css">
	.st0{fill:#330066;stroke:#000000;stroke-miterlimit:10;}
	.st1{fill:url(#SVGID_1_);stroke:#FFFFFF;stroke-miterlimit:10;}
	.st2{fill:url(#SVGID_2_);stroke:#FFFFFF;stroke-miterlimit:10;}
	.st3{fill:#A04CFE;stroke:#FFFFFF;stroke-miterlimit:10;}
	.st4{fill:#A04CFE;}
	.st5{fill:#FDB00A;}
	.st6{fill:#FFFFFF;}
	.st7{fill:none;}
	.st8{fill:url(#SVGID_3_);}
</style>
<rect x="17.7" y="13.3" class="st0" width="687.6" height="583.6"/>
<g id="csd">
	
		<linearGradient id="SVGID_1_" gradientUnits="userSpaceOnUse" x1="301.9848" y1="153.3335" x2="481.1132" y2="153.3335" gradientTransform="matrix(1 -8.273832e-04 8.273832e-04 1 -0.3652 0.4321)">
		<stop  offset="0" style="stop-color:#020202"/>
		<stop  offset="5.417992e-02" style="stop-color:#221803"/>
		<stop  offset="0.1521" style="stop-color:#543B05"/>
		<stop  offset="0.2546" style="stop-color:#825A06"/>
		<stop  offset="0.3598" style="stop-color:#A87507"/>
		<stop  offset="0.4683" style="stop-color:#C78A08"/>
		<stop  offset="0.5812" style="stop-color:#DF9B09"/>
		<stop  offset="0.7005" style="stop-color:#F0A70A"/>
		<stop  offset="0.8303" style="stop-color:#FAAE0A"/>
		<stop  offset="0.9904" style="stop-color:#FDB00A"/>
	</linearGradient>
	<path class="st1" d="M301.8,209.1c3.7-29.6,29.3-57.5,49.9-58c47.2-1,64.2-1.7,100.2-2.7c32-0.9,29.4-40.3,28.5-49
		c-0.1-1-0.9-1.7-1.9-1.7c-12.9,0-94.9,0.7-114.2,0.7C356.2,98.5,301.2,134.3,301.8,209.1"/>
	
		<linearGradient id="SVGID_2_" gradientUnits="userSpaceOnUse" x1="154.0639" y1="452.0156" x2="333.1923" y2="452.0156" gradientTransform="matrix(1 -8.273832e-04 8.273832e-04 1 -0.3652 0.4321)">
		<stop  offset="0" style="stop-color:#000000;stop-opacity:0.2"/>
		<stop  offset="4.138791e-03" style="stop-color:#030105;stop-opacity:0.2033"/>
		<stop  offset="4.678410e-02" style="stop-color:#200F34;stop-opacity:0.2379"/>
		<stop  offset="9.355088e-02" style="stop-color:#3B1C5E;stop-opacity:0.2757"/>
		<stop  offset="0.1447" style="stop-color:#542885;stop-opacity:0.317"/>
		<stop  offset="0.2" style="stop-color:#6832A6;stop-opacity:0.3618"/>
		<stop  offset="0.261" style="stop-color:#7A3AC1;stop-opacity:0.4111"/>
		<stop  offset="0.3295" style="stop-color:#8841D8;stop-opacity:0.4666"/>
		<stop  offset="0.4088" style="stop-color:#9346E9;stop-opacity:0.5308"/>
		<stop  offset="0.506" style="stop-color:#9A49F5;stop-opacity:0.6094"/>
		<stop  offset="0.6402" style="stop-color:#9F4BFC;stop-opacity:0.7179"/>
		<stop  offset="0.9888" style="stop-color:#A04CFE"/>
	</linearGradient>
	<path class="st2" d="M154,396.7c3.7,29.6,29.4,57.5,50,57.9c47.2,0.9,64.2,1.6,100.2,2.5c32,0.8,29.5,40.3,28.5,48.9
		c-0.1,1-0.9,1.7-1.9,1.7c-12.9,0-94.8,0.1-114.2,0.1C208.7,507.9,153.6,471.5,154,396.7"/>
	<path class="st3" d="M214.8,507.6c-169-19.1-135.4-211.1-11.6-228.2c16.7-1.4,31.8-1.6,41.1-1c0,0,17,32.4,54.8,51.2
		c-8.1-0.7-83.1-1.3-95.8,1.8C118.2,355.1,157.5,481.2,214.8,507.6z"/>
	<path class="st4" d="M216.3,507.6c-169-19.1-136.3-209-12.4-226.1c16.7-1.4,28.6-0.4,37.9,0.2c0,0,14.3,28.1,52.1,47
		c-8.1-0.7-79-0.8-91.8,2.4C118.7,352.1,155.1,471.9,216.3,507.6z"/>
	<g>
		<path class="st5" d="M446.7,508c-35.2,0-60.2-0.5-67.1-0.7c-0.8,0-1.4-0.6-1.4-1.4l-0.1-104.5c0-0.4,0.1-0.7,0.4-1
			c0.3-0.3,0.6-0.4,1-0.4l9.7,0c10.3,0,18.9,3.4,25.4,10c14,14.1,14.9,38.9,14.8,46.2c0,0.6,0.2,1.2,0.7,1.7
			c0.5,0.5,1.1,0.7,1.8,0.7l13.1,0c24.5,0,45.7-0.1,65.1-0.3c8.3-0.1,22.1-5.8,34.1-18.2c9.1-9.4,19.9-25.5,19.5-48.9
			c0-0.1,0-0.1,0-0.2c-1-13.2-7.8-28.4-18.2-40.9c-10.5-12.5-23-20.3-33.5-20.7c-3.8,0-7.8,0.1-12.1,0.1c-12,0.1-25.5,0.2-38.8,0.2
			c-21.9,0-37.6-0.3-48-0.8c-0.1,0-0.1,0-0.2,0c-22.8-3.8-30.4-35.7-29.5-47.2c0.2-2.3,0.7-3.1,1-3.1l127.6-0.1
			c34.3,0,93.7,40.2,102,89.8c5.8,34.7-1.2,66.8-20.3,93c-16.6,22.7-41.9,39.5-69.2,45.9c-0.1,0-0.2,0-0.3,0
			C499,507.7,472.9,508,446.7,508z"/>
		<path class="st6" d="M512.2,279c17.2,0,40.3,10.1,60.5,26.4c22.7,18.4,37.3,40.7,41,63c5.8,34.5-1.2,66.5-20.2,92.6
			c-16.6,22.6-41.7,39.3-68.9,45.7c-0.1,0-0.2,0-0.2,0c-25.2,0.5-51.3,0.8-77.4,0.8c-35.3,0-60.2-0.5-67-0.7c-0.5,0-0.9-0.4-0.9-0.9
			l-0.1-104.5c0-0.5,0.4-0.9,0.9-0.9l9.7,0c10.2,0,18.7,3.4,25.1,9.9c13.8,14,14.7,38.6,14.7,45.9c0,0.8,0.3,1.5,0.8,2
			c0.6,0.6,1.3,0.9,2.1,0.9l13,0c24.5,0,45.7-0.1,65.2-0.3c8.4-0.1,22.3-5.8,34.5-18.4c9.2-9.5,20.1-25.7,19.7-49.3
			c0-0.1,0-0.1,0-0.2c-1-13.3-7.8-28.7-18.3-41.2C535.4,337,523,329.4,512.2,329c-3.7,0-7.8,0.1-12,0.1c-12,0.1-25.5,0.2-38.8,0.2
			c-21.9,0-37.6-0.3-48-0.8c0,0-0.1,0-0.1,0c-17.7-2.9-24.8-22.7-27.1-31c-2.8-10.3-2.2-17.3-1.4-18.2l19.1,0L512.2,279L512.2,279
			 M384.7,279.1L384.7,279.1L384.7,279.1 M512.2,278C512.1,278,512.1,278,512.2,278c-34.6,0-122.9,0.1-127.6,0.1
			c-4.7,0,0.2,46.6,28.4,51.3c0.1,0,0.2,0,0.3,0c12.1,0.6,29.8,0.8,48.1,0.8c18,0,36.5-0.2,50.8-0.3c22.2,0.8,49.2,33.4,51.2,61.1
			c0,0.1,0,0.1,0,0.2c0.7,42.4-36.1,66.4-53.2,66.6c-22.8,0.2-48.5,0.2-78.2,0.3c0,0,0,0,0,0c-1.1,0-2-0.8-2-1.9
			c0.1-10-1.7-56.6-40.7-56.7l-9.7,0c-1.1,0-1.9,0.8-1.9,1.9l0.1,104.5c0,1,0.8,1.9,1.9,1.9c6.8,0.2,31.8,0.7,67.1,0.7
			c22.3,0,48.8-0.2,77.5-0.8c0.1,0,0.3,0,0.4-0.1c52.8-12.4,102.6-64,90-139.4C606.3,318.8,546.7,278,512.2,278L512.2,278z"/>
	</g>
	<path class="st7" d="M552.2,407.3"/>
	<g>
		<path class="st5" d="M350,328.8c-36.9,0-103.1-40-103.3-119.6c0-56.8,51.5-105.3,117.3-110.4c0,0,0.1,0,0.1,0
			c0.6,0,1.1,0.4,1.4,0.9c0.2,0.5,0.1,1.1-0.4,1.5c-15,13.5-64,61.6-63.9,112.5c0,54.1,49.5,63.5,59.4,64.8c0.8,0.1,1.3,0.8,1.2,1.5
			c-2.1,18.1,3.3,34.1,15.6,46.5c0.4,0.4,0.5,1,0.3,1.5c-0.2,0.4-0.6,0.9-1.3,0.9L350,328.8z"/>
		<path class="st6" d="M364.2,99.2c0.5,0,0.8,0.3,0.9,0.6c0.1,0.2,0.1,0.6-0.2,0.9c-15,13.5-64.1,61.7-64.1,112.9
			c0,54.5,49.8,64,59.8,65.3c0.5,0.1,0.9,0.5,0.8,0.9c-2.1,18.2,3.3,34.4,15.7,46.9c0.4,0.4,0.3,0.8,0.2,0.9
			c-0.1,0.1-0.3,0.6-0.9,0.6l-26.4,0c-36.8,0-102.6-39.8-102.8-119.1C247.2,152.7,298.5,104.4,364.2,99.2
			C364.2,99.2,364.2,99.2,364.2,99.2 M364.2,98.2c-0.1,0-0.1,0-0.2,0c-66.5,5.2-117.9,54.2-117.8,110.9
			c0.3,80.8,67.4,120.1,103.8,120.1c0,0,0,0,0,0l26.3,0c1.7,0,2.6-2,1.4-3.2c-11-11-17.7-26.3-15.4-46c0.1-1-0.6-1.9-1.7-2.1
			c-10.3-1.4-58.9-10.8-58.9-64.3c0-50.9,49.1-98.9,63.8-112.2C366.9,100.3,366,98.2,364.2,98.2L364.2,98.2z"/>
	</g>
	
		<linearGradient id="SVGID_3_" gradientUnits="userSpaceOnUse" x1="430.0541" y1="463.6017" x2="559.0363" y2="463.6017" gradientTransform="matrix(1 -8.273832e-04 8.273832e-04 1 -0.3652 0.4321)">
		<stop  offset="0.3167" style="stop-color:#FDB00A;stop-opacity:2.000000e-02"/>
		<stop  offset="0.3702" style="stop-color:#F1A80A;stop-opacity:5.354112e-02"/>
		<stop  offset="0.467" style="stop-color:#D19208;stop-opacity:0.1141"/>
		<stop  offset="0.5958" style="stop-color:#9E6E06;stop-opacity:0.1949"/>
		<stop  offset="0.752" style="stop-color:#563C03;stop-opacity:0.2927"/>
		<stop  offset="0.9231" style="stop-color:#000000;stop-opacity:0.4"/>
	</linearGradient>
	<path class="st8" d="M430.1,458.4l0,49.5c0,0.1,0.1,0.2,0.2,0.2l75.2-0.1c0,0,0.1,0,0.1,0c38.9-29.2,51.7-58.7,53.4-88.8
		c-4.8,13.6-22.9,36.2-46.1,39.3c0,0-6.4,0.4-6.4,0.4l-76.2-0.7C430.2,458.2,430.1,458.3,430.1,458.4z"/>
</g>
</svg>
